<?xml version="1.0" encoding="UTF-8" standalone="no"?>
<svg data-name="Layer 1" id="Layer_1" viewBox="0 0 32 32" xmlns="http://www.w3.org/2000/svg">
    <path d="M25.384,11.987a.993.993,0,0,1-.707-.293L20.434,7.452a1,1,0,0,1,0-1.414l2.122-2.121a3.07,3.07,0,0,1,4.242,0l1.414,1.414a3,3,0,0,1,0,4.242l-2.122,2.121A.993.993,0,0,1,25.384,11.987ZM22.555,6.745l2.829,2.828L26.8,8.159a1,1,0,0,0,0-1.414L25.384,5.331a1.023,1.023,0,0,0-1.414,0Z" fill="#FFFFFF"/>
    <path d="M11.9,22.221a2,2,0,0,1-1.933-2.487l.875-3.5a3.02,3.02,0,0,1,.788-1.393l8.8-8.8a1,1,0,0,1,1.414,0l4.243,4.242a1,1,0,0,1,0,1.414l-8.8,8.8a3,3,0,0,1-1.393.79h0l-3.5.875A2.027,2.027,0,0,1,11.9,22.221Zm3.752-1.907h0ZM21.141,8.159l-8.094,8.093a1,1,0,0,0-.262.465l-.876,3.5,3.5-.876a1,1,0,0,0,.464-.263l8.094-8.094Z" fill="#FFFFFF"/>
    <path d="M22,29H8a5.006,5.006,0,0,1-5-5V10A5.006,5.006,0,0,1,8,5h9.64a1,1,0,0,1,0,2H8a3,3,0,0,0-3,3V24a3,3,0,0,0,3,3H22a3,3,0,0,0,3-3V14.61a1,1,0,0,1,2,0V24A5.006,5.006,0,0,1,22,29Z" fill="#FFFFFF"/>
</svg>
