<?xml version="1.0" encoding="UTF-8" standalone="no"?>
<svg
        fill="#f44336"
        width="20.571428"
        height="24"
        viewBox="-64 0 13.165714 15.36"
        version="1.1"
        id="svg263"
        xmlns="http://www.w3.org/2000/svg">
    <path
            d="m -55.793371,9.8742857 c 2.9184,0 4.959085,-2.03856 4.959085,-4.9689943 C -50.834286,1.9748571 -52.874971,0 -55.793371,0 h -5.600915 c -0.227211,0 -0.411428,0.18421714 -0.411428,0.41142857 V 7.4959543 h -1.782857 C -63.815783,7.4959543 -64,7.6801714 -64,7.9073829 v 1.5554742 c 0,0.2272115 0.184217,0.4114286 0.411429,0.4114286 h 1.782857 v 1.0971433 h -1.782857 C -63.815783,10.971429 -64,11.155646 -64,11.382857 v 1.371429 c 0,0.227211 0.184217,0.411428 0.411429,0.411428 h 1.782857 v 1.782857 c 0,0.227212 0.184217,0.411429 0.411428,0.411429 h 2.007772 c 0.227211,0 0.411428,-0.184217 0.411428,-0.411429 V 13.165714 H -53.44 c 0.227211,0 0.411429,-0.184217 0.411429,-0.411428 v -1.371429 c 0,-0.227211 -0.184218,-0.411428 -0.411429,-0.411428 h -5.535086 V 9.8742857 Z m -3.181715,-7.5172114 h 2.698972 c 1.601828,0 2.567314,0.9980571 2.567314,2.5482171 0,1.5713829 -0.965486,2.5906629 -2.6112,2.5906629 h -2.655086 z"
            id="path261"
            style="stroke-width:0.0342857" />
</svg>
