<?xml version="1.0" encoding="UTF-8" standalone="no"?>
<svg
        fill="#000000"
        height="24"
        width="24"
        version="1.1"
        id="Capa_1"
        viewBox="0 0 13.82325 13.82325"
        xml:space="preserve"
        xmlns="http://www.w3.org/2000/svg"><defs
   id="defs7" />
    <path
            d="M 8.5523971,6.9119096 13.68654,1.7777656 c 0.18228,-0.1823217 0.18228,-0.477361 0,-0.6596229 L 12.705329,0.13650888 C 12.617939,0.04917318 12.499349,0 12.375569,0 c -0.12381,0 -0.2424,0.0491732 -0.32979,0.13650888 L 6.9116363,5.2710429 1.7774935,0.13650888 C 1.6901035,0.04917319 1.5715134,0 1.4477033,0 1.3239233,0 1.2053032,0.0491732 1.1179432,0.13650888 L 0.13673257,1.1181426 c -0.1823101,0.182262 -0.1823101,0.4773013 0,0.659623 L 5.2708753,6.9119395 0.13724257,12.045484 c -0.1822201,0.182321 -0.1822201,0.477361 0,0.659622 L 1.1185132,13.68674 c 0.087331,0.08734 0.2059501,0.13651 0.3297601,0.13651 0.1238101,0 0.2424002,-0.04918 0.3298202,-0.13651 L 6.9116063,8.5528064 12.045149,13.68674 c 0.08739,0.08734 0.20598,0.13651 0.32979,0.13651 0.12384,0 0.24243,-0.04918 0.32976,-0.13651 l 0.98127,-0.981634 c 0.182221,-0.182261 0.182221,-0.477301 0,-0.659622 z"
            id="path2"
            style="fill:#777777;fill-opacity:1;stroke-width:0.030001" />
</svg>
