<svg
        width="32"
        height="32"
        viewBox="0 0 40.96 40.960001"
        class="icon"
        version="1.1"
        id="svg58"
        xmlns="http://www.w3.org/2000/svg">
    <defs
            id="defs62" />
    <path
            d="m 13.259288,33.814247 1.510662,-1.309068 a 0.15221964,0.15214323 0 0 0 -0.0091,-0.237847 l -0.787349,-0.584606 a 0.15783488,0.15775564 0 0 0 -0.196839,0.0073 c -1.545416,1.201673 -2.334894,1.811004 -2.368586,1.8286 l -0.840926,0.43671 a 0.6595678,0.65923668 0 0 0 -0.219906,0.184605 0.64651607,0.64619151 0 0 0 0.130213,0.913314 l 3.724448,2.787118 c 0.04674,0.03473 0.109119,0.04095 0.161782,0.01577 l 0.778399,-0.370422 c 0.0472,-0.0223 0.07376,-0.08495 0.07998,-0.187335 -0.268785,-0.788941 -0.951876,-1.661148 -1.37803,-2.074195 -0.109271,-0.105878 -0.297155,-0.264088 -0.563653,-0.475087 a 0.60705733,0.60675257 0 0 1 -0.09925,-0.852336 c 0.02337,-0.03018 0.04963,-0.05779 0.07816,-0.08252 z"
            fill="#ffc62e"
            id="path2"
            style="stroke-width:0.0607496" />
    <path
            d="m 11.298948,33.032599 a 121.33559,121.27467 0 0 0 0.44816,-0.344484 c 0.39307,-0.303376 0.974327,-0.754345 1.743469,-1.352148 a 0.61312786,0.61282007 0 0 1 0.75442,-0.0185 l 0.787354,0.584454 a 0.60781615,0.60751103 0 0 1 0.03597,0.947445 l -1.510662,1.308917 a 0.15176433,0.15168814 0 0 0 0.0053,0.233751 c 0.277577,0.219341 0.475022,0.386047 0.597951,0.505121 0.586873,0.568376 1.232023,1.49064 1.492147,2.254086 l 0.02884,0.08479 -0.0055,0.08965 c -0.01518,0.250286 -0.104262,0.458857 -0.338738,0.570651 l -0.778392,0.37042 a 0.613735,0.61342684 0 0 1 -0.630245,-0.06219 L 10.205939,35.41805 A 1.1016573,1.1011042 0 0 1 9.9854261,33.863096 1.1153161,1.1147562 0 0 1 10.357248,33.551224 l 0.814519,-0.423058 c 0.0387,-0.02867 0.0771,-0.05764 0.127179,-0.09556 z m 2.775769,-0.998715 -0.01245,0.01001 c 0.0043,-0.0033 0.0085,-0.0065 0.01245,-0.01001 z m -0.547565,3.516435 c -0.09576,-0.09268 -0.273935,-0.243157 -0.529354,-0.445205 a 1.0623503,1.061817 0 0 1 -0.03657,-1.634744 l 1.225953,-1.062423 -0.303226,-0.224954 c -1.684735,1.309676 -2.192691,1.701183 -2.265993,1.739256 l -0.840926,0.436711 a 0.20442658,0.20432394 0 0 0 -0.06815,0.05718 c -0.06556,0.0854 -0.04841,0.205538 0.04143,0.272281 l 3.579817,2.67912 0.361654,-0.172318 C 14.436066,36.627302 13.954063,35.963819 13.52715,35.550317 Z"
            fill="#524f75"
            id="path4"
            style="stroke-width:0.0607496" />
    <path
            d="m 27.559737,34.271436 -1.476212,-2.24726 a 0.15252316,0.1524466 0 0 0 -0.197445,-0.05233 l -0.868396,0.446115 c -0.08544,0.05598 -0.104717,0.151839 -0.05813,0.223133 l 2.506691,4.640747 a 0.66321008,0.66287714 0 0 0 0.148881,0.239819 0.64955133,0.64922526 0 0 0 0.924397,0.0086 l 3.331682,-3.299672 c 0.06389,-0.07342 0.05706,-0.170953 -0.0068,-0.226926 -0.443001,-0.369512 -0.679753,-0.551387 -0.710258,-0.545774 -0.844113,0.153812 -1.504894,0.415626 -1.982345,0.785745 a 4.5423064,4.540026 0 0 0 -0.243582,0.206599 v -1.82e-4 a 0.91058597,0.91012887 0 0 1 -1.368459,-0.178689 z"
            fill="#ffc62e"
            id="path6"
            style="stroke-width:0.0607496" />
    <path
            d="m 24.768335,32.037525 0.02019,-0.0132 0.88949,-0.457188 a 0.60796789,0.60766265 0 0 1 0.78614,0.207054 l 1.476211,2.247412 a 0.455293,0.45506442 0 0 0 0.684305,0.08919 4.9220208,4.9195498 0 0 1 0.268472,-0.227228 c 0.541343,-0.41957 1.269052,-0.707777 2.179638,-0.873724 a 0.44649064,0.44626648 0 0 1 0.227951,0.01517 c 0.02929,0.0094 0.05478,0.02048 0.07968,0.03292 0.02853,0.01471 0.05615,0.03109 0.08635,0.05097 0.04416,0.02897 0.09819,0.06872 0.165423,0.120289 0.124144,0.09541 0.298369,0.236633 0.532541,0.432159 0.257696,0.225864 0.273934,0.610394 0.05039,0.867657 l -0.02307,0.02472 -3.331682,3.299672 a 1.1051479,1.104593 0 0 1 -1.571368,-0.01456 1.1059067,1.1053515 0 0 1 -0.237663,-0.367843 l -2.485748,-4.602067 c -0.171797,-0.28578 -0.07816,-0.647405 0.202757,-0.831403 z m 4.682538,2.565804 c -0.05342,0.04141 -0.126876,0.103755 -0.218693,0.186122 -0.561983,0.502694 -1.425675,0.455064 -1.928773,-0.106637 a 1.3450873,1.344412 0 0 1 -0.123992,-0.161092 l -1.327027,-2.020183 -0.352548,0.181115 2.384369,4.414429 0.01169,0.03337 c 0.01002,0.02806 0.02595,0.05355 0.04644,0.07448 a 0.19425834,0.19416082 0 0 0 0.277425,0.0027 l 3.096145,-3.066527 a 10.409212,10.403986 0 0 0 -0.238119,-0.18961 c -0.005,-0.0038 -0.0099,-0.0077 -0.01502,-0.01138 -0.692956,0.143345 -1.229291,0.366933 -1.611888,0.66318 z"
            fill="#524f75"
            id="path8"
            style="stroke-width:0.0607496" />
    <path
            d="m 16.702972,19.890641 c -4.721388,-0.389535 -6.368486,-1.329394 -6.684763,-2.597355 -0.3162779,-1.267962 2.15566,-2.645138 6.674746,-3.966039"
            fill="#3d96c8"
            id="path10"
            style="stroke-width:0.0607496" />
    <path
            d="m 16.847452,19.283282 c -4.200989,-0.126053 -6.045836,-0.797728 -6.389886,-1.922191 -0.25633,-0.83823 1.890984,-2.248322 6.173014,-3.747305 a 0.45532988,0.45510129 0 1 0 -0.3011,-0.85901 c -4.830962,1.691172 -7.2333915,3.268728 -6.7428889,4.872375 0.5015809,1.639901 2.6689269,2.428982 7.2333909,2.565805 a 0.455293,0.45506442 0 1 0 0.02747,-0.909674 z"
            fill="#524f75"
            id="path12"
            style="stroke-width:0.0607496" />
    <path
            d="m 11.182545,31.820763 c 1.742709,1.070159 5.475657,1.77293 8.641764,1.802509 1.330518,0.01229 3.735224,-0.276072 7.214876,-0.865077 2.065361,-0.579146 3.562213,-1.346233 3.803366,-4.317955 0.350424,-4.320836 0.407639,-7.136927 0.170887,-8.447967 -0.191375,-1.061666 -0.528595,-2.91939 -1.011965,-5.573174 -0.694321,-3.812833 -4.000356,-6.5825073 -7.857598,-6.5825073 h -1.803264 c -3.831594,0 -7.123362,2.7341793 -7.84485,6.5157643 l -1.7462,9.804666 c -0.146908,0.82488 -0.9350199,1.374446 -1.7601625,1.227764 A 1.5209821,1.5202186 0 0 1 8.4598928,25.183041 L 8.0735002,24.945649 c -0.3375235,-0.173987 -0.9430633,0.06598 -1.1748071,0.426244 -0.2317444,0.360258 0.2627036,2.18173 0.6562288,2.86554 0.3936765,0.6829 1.8847612,2.513321 3.6276231,3.58333 z"
            fill="#3d96c8"
            id="path14"
            style="stroke-width:0.0607496" />
    <path
            d="M 10.944123,32.208629 C 9.4198021,31.272561 7.776953,29.534974 7.1601826,28.463752 6.6453984,27.569398 6.1752321,25.654336 6.5156396,25.125096 6.8709198,24.572648 7.7245942,24.253496 8.2820245,24.54049 l 0.4164415,0.254684 a 1.0623503,1.061817 0 0 0 1.602783,-0.717939 l 1.747263,-9.810128 c 0.762312,-3.995769 4.241661,-6.8855795 8.292099,-6.8855795 h 1.803264 c 4.077453,0 7.571978,2.9274295 8.305455,6.9561145 0.483369,2.654087 0.820589,4.511964 1.012116,5.574084 0.245858,1.363677 0.18834,4.203734 -0.165423,8.565375 -0.123081,1.518246 -0.566991,2.59053 -1.355863,3.347453 -0.656229,0.629506 -1.476363,1.006754 -2.778349,1.371716 -3.551589,0.603719 -5.976631,0.894505 -7.342055,0.881764 -3.377971,-0.0311 -7.113346,-0.787414 -8.875633,-1.869405 z M 7.3017791,25.83621 c 0.016997,0.19856 0.063438,0.455671 0.1327934,0.738266 0.1381055,0.562612 0.3475406,1.144184 0.5150886,1.435425 0.5430126,0.943045 2.0802329,2.56899 3.4713049,3.422994 1.594892,0.979451 5.179868,1.704975 8.407592,1.735009 1.292577,0.01183 3.669661,-0.272583 7.110766,-0.854762 1.155989,-0.325674 1.850766,-0.647253 2.370407,-1.145549 0.61495,-0.590218 0.972507,-1.454082 1.078893,-2.76482 0.347085,-4.280184 0.40339,-7.072004 0.176654,-8.330409 -0.191527,-1.061362 -0.528596,-2.918783 -1.011965,-5.572415 -0.654711,-3.596223 -3.77271,-6.2082924 -7.409438,-6.2082924 h -1.803264 c -3.612598,0 -6.716937,2.5785464 -7.396538,6.1404874 l -1.7462,9.804514 c -0.19092,1.072132 -1.2154809,1.786735 -2.2881508,1.595911 A 1.9689904,1.9680019 0 0 1 8.221319,25.570301 L 7.856326,25.345802 c -0.1076014,-0.04005 -0.4258509,0.07873 -0.55652,0.24619 -0.00728,0.07357 -0.00607,0.150323 0.00197,0.244218 z"
            fill="#524f75"
            id="path16"
            style="stroke-width:0.0607496" />
    <path
            d="m 29.578961,14.645721 a 3215.3641,3213.7498 0 0 1 0.98404,5.377648 c 0.230075,1.264927 0.174529,3.982117 -0.166333,8.151417 -0.234477,2.867361 -1.689896,3.607599 -3.698649,4.166419 -3.383585,0.568375 -5.722426,0.846722 -7.016369,0.834738 -0.86794,-0.008 -1.835893,-0.09147 -2.806122,-0.221009 a 2.334439,2.333267 0 0 1 0.508866,-0.454154 c 1.509903,-0.994164 2.447806,-3.857885 2.595474,-4.75603 0.300189,-1.825567 0.330998,-4.042944 0.310965,-10.487566 -0.01062,-3.434978 2.457216,-6.377273 5.843078,-6.966278 a 5.202026,5.1994144 0 0 1 0.922423,-0.07721 7.727536,7.7236568 0 0 1 2.522627,4.432024 z"
            fill="#ffffff"
            id="path18"
            style="stroke-width:0.0607496" />
    <path
            d="m 27.894377,14.367828 a 2.2021005,2.7516229 0 1 0 4.404201,0 2.2021005,2.7516229 0 1 0 -4.404201,0 z"
            fill="#ffffff"
            id="path20"
            style="stroke-width:0.0607496" />
    <path
            d="m 30.188599,16.870834 c 1.285443,0 2.291338,-1.203341 2.291338,-2.651205 -10e-7,-1.447863 -1.006047,-2.651205 -2.291338,-2.651205 -1.285444,0 -2.291338,1.203342 -2.291338,2.651205 0,1.447864 1.006197,2.651205 2.291338,2.651205 z m 0,-0.910129 c -0.742887,0 -1.380753,-0.763294 -1.380753,-1.741076 0,-0.977782 0.63817,-1.741077 1.380753,-1.741077 0.742582,0 1.380751,0.763295 1.380751,1.741077 0,0.977782 -0.638169,1.741076 -1.380751,1.741076 z"
            fill="#524f75"
            id="path22"
            style="stroke-width:0.0607496" />
    <path
            d="m 31.181289,14.636316 c -0.103958,0.135306 -0.256785,0.220858 -0.427672,0.220858 -0.312179,0 -0.565018,-0.285477 -0.565018,-0.637545 0,-0.352068 0.252839,-0.637545 0.565018,-0.637545 0.308234,0 0.558797,0.278499 0.565019,0.624651 l -0.41887,0.06871 0.281523,0.361017 z"
            fill="#232323"
            id="path24"
            style="stroke-width:0.0607496" />
    <path
            d="m 28.371373,21.117647 c 0.780372,-0.06098 1.45542,-0.08358 2.660884,-0.970501 0.502643,-0.369967 1.413077,-1.113391 1.837714,-1.623214 0.402175,-0.482672 0.273631,-1.065913 0,-1.452566 -0.562742,-0.794998 -1.404427,-0.840201 -2.357962,-1.137813 -0.366208,-0.114221 -1.211383,-0.357378 -2.293008,-0.562915 0.276818,0.825639 0.398988,1.820713 0.365752,2.985223 -0.02884,1.016614 -0.09986,1.937209 -0.21338,2.761786 z"
            fill="#ffc62e"
            id="path26"
            style="stroke-width:0.0607496" />
    <path
            d="m 29.034734,17.921729 c 0.102897,-0.885252 0.110637,-1.68844 0.02186,-2.410021 0.568661,0.180206 1.077679,0.366327 1.483952,0.533336 0.112002,0.04596 0.22704,0.09025 0.36044,0.139098 0.0516,0.01896 0.103959,0.03777 0.171342,0.06204 l 0.164209,0.05886 c 0.786746,0.28305 1.089516,0.46902 1.333554,0.887376 0.186973,0.320061 0.178778,0.660298 -0.05661,0.897083 -0.370002,0.372698 -1.210625,0.977479 -1.886127,1.389008 -0.781587,0.476149 -1.289997,0.637394 -1.935602,0.666215 0.135373,-0.680928 0.2495,-1.421773 0.342987,-2.22299 z m -0.909979,3.135395 0.09941,10e-4 c 0.135677,0.0014 0.207614,0.0018 0.290629,0.0011 0.899052,-0.0074 1.588214,-0.195526 2.586519,-0.803795 0.733326,-0.44657 1.624637,-1.088059 2.058532,-1.524921 0.556064,-0.560185 0.575338,-1.348812 0.196534,-1.997126 -0.382142,-0.653928 -0.839256,-0.935006 -1.811762,-1.284798 l -0.16512,-0.05916 c -0.06556,-0.02351 -0.115948,-0.04171 -0.164816,-0.05977 a 8.7822987,8.7778893 0 0 1 -0.328115,-0.12666 c -0.598254,-0.245735 -1.398204,-0.527419 -2.284963,-0.777554 -0.334792,-0.0945 -0.64773,0.206296 -0.566081,0.544561 0.190312,0.790295 0.223094,1.739407 0.09455,2.84658 -0.115644,0.994922 -0.26407,1.889731 -0.445276,2.684425 a 0.455293,0.45506442 0 0 0 0.439964,0.556089 z"
            fill="#524f75"
            id="path28"
            style="stroke-width:0.0607496" />
    <path
            d="m 23.189683,14.671205 a 2.2021005,2.7516229 0 1 0 4.404201,0 2.2021005,2.7516229 0 1 0 -4.404201,0 z"
            fill="#ffffff"
            id="path30"
            style="stroke-width:0.0607496" />
    <path
            d="m 25.478593,17.926432 c 1.625395,0 2.926775,-1.417374 2.926775,-3.147074 0,-1.729852 -1.301228,-3.147226 -2.926775,-3.147226 -1.6257,0 -2.926927,1.417374 -2.926927,3.147226 0,1.7297 1.301227,3.147074 2.926927,3.147074 z m 0,-0.910129 c -1.104238,0 -2.016341,-0.993254 -2.016341,-2.236945 0,-1.243842 0.911952,-2.237096 2.016341,-2.237096 1.104389,0 2.016188,0.993254 2.016188,2.237096 0,1.243691 -0.912103,2.236945 -2.016188,2.236945 z"
            fill="#524f75"
            id="path32"
            style="stroke-width:0.0607496" />
    <path
            d="m 26.772839,15.476517 c -0.142658,0.180205 -0.353004,0.294426 -0.588087,0.294426 -0.429038,0 -0.777033,-0.380585 -0.777033,-0.85006 0,-0.469475 0.347995,-0.85006 0.777033,-0.85006 0.423877,0 0.768231,0.371332 0.776579,0.832919 l -0.575947,0.09162 z"
            fill="#232323"
            id="path34"
            style="stroke-width:0.0607496" />
    <path
            d="m 9.0979097,25.876559 c 0.7859874,0.163823 1.4265853,0.218734 1.9304423,0.160031 0.487923,-0.05718 0.865208,-0.217369 1.201973,-0.468413 0.109119,-0.08146 0.355433,-0.295943 0.379411,-0.313236 a 0.45498948,0.45476105 0 0 0 0.101834,-0.63527 0.45498948,0.45476105 0 0 0 -0.635741,-0.101783 c -0.06678,0.04824 -0.319767,0.26864 -0.390034,0.320821 -0.213836,0.159424 -0.442241,0.256353 -0.763526,0.293971 -0.391401,0.04581 -0.9404839,-0.0015 -1.6387513,-0.146986 a 0.455293,0.45506442 0 1 0 -0.185608,0.890865 z"
            fill="#524f75"
            id="path36"
            style="stroke-width:0.0607496" />
    <path
            d="m 24.637999,9.8585287 c 2.933352,-0.9525273 4.82449,-3.9494857 4.327483,-5.4798952 -0.497447,-1.5302916 -3.500797,1.1274251 -6.433778,2.0801673 -2.933059,0.9524489 -6.940707,1.6028493 -6.443113,3.1331024 0.497593,1.5302518 5.616202,1.2191138 8.549408,0.2666255 z"
            fill="#ffd04f"
            id="path38"
            style="stroke-width:0.0607496" />
    <path
            d="m 24.657482,10.388343 c -1.550076,0.415133 -3.62528,0.625574 -5.363096,0.54025 -2.071072,-0.101759 -3.451193,-0.577642 -3.718539,-1.5754787 -0.230649,-0.8603621 0.3515,-1.4738827 1.493454,-1.9397376 0.758414,-0.3094296 1.511246,-0.5042963 3.408162,-0.929088 l 0.282031,-0.063283 c 0.771745,-0.1735488 1.26066,-0.289726 1.736355,-0.4171239 0.373372,-0.099995 0.768056,-0.233022 1.195596,-0.3999739 0.484702,-0.1893283 0.959086,-0.3989777 1.64998,-0.721733 1.687988,-0.7886024 1.913647,-0.8875122 2.469909,-1.0355453 0.904247,-0.240757 1.564867,-0.048167 1.775827,0.7381636 0.531215,1.9815296 -1.938155,5.0023756 -4.929679,5.8035498 z M 24.421658,9.5092656 c 1.301453,-0.3485481 2.501017,-1.1580437 3.342436,-2.1875859 0.75662,-0.9256419 1.104879,-1.8988007 0.94344,-2.5009961 -0.04942,-0.1843213 -0.180634,-0.2225161 -0.661949,-0.094398 -0.47721,0.1270189 -0.709591,0.2289849 -2.318867,0.9806461 -0.707222,0.3304255 -1.196623,0.5467666 -1.703927,0.7449743 -0.457127,0.1784885 -0.882965,0.3219002 -1.29148,0.431464 -0.4905,0.1313634 -0.989316,0.2498776 -1.772213,0.4257854 l -0.282763,0.063479 C 18.837111,7.7846449 18.104802,7.9740151 17.413223,8.2561233 16.645889,8.5691987 16.382524,8.846867 16.455151,9.1177811 16.7305,10.144883 21.224169,10.3656 24.421658,9.5092656 Z"
            fill="#524f75"
            id="path40"
            style="stroke-width:0.0607496" />
    <path
            d="M 20.468931,9.7022644 C 22.468506,8.6992429 24.089817,6.8449272 23.772064,5.8049981 23.454418,4.7648832 21.270629,3.1039176 16.947262,4.4538375 12.623348,5.804061 12.447915,9.8670062 12.945215,11.397337 c 0.497594,1.530253 5.523808,-0.692119 7.523716,-1.6950726 z"
            fill="#fd6b4d"
            id="path42"
            style="stroke-width:0.0607496" />
    <path
            d="m 16.227335,3.9702766 c 1.249862,0.8163653 2.502487,1.6043519 3.157132,2.2775107 0.553613,0.5694036 1.273571,1.6016504 2.159807,3.0970724 C 21.705915,9.617847 17.807159,11.595746 17.722747,11.403366 17.105722,9.9972811 16.704905,8.8626034 16.520699,7.9990681 16.311128,7.0174794 16.196469,5.2816537 16.227335,3.9702766 Z m 0.194816,-3.77e-5 c 1.867384,-0.4734158 3.371406,-0.6500785 4.595818,-0.5715767 1.224373,0.078355 2.205028,1.1271548 3.484668,2.2538631 L 24.141058,7.5840498 C 23.053499,6.2794828 22.124784,5.3048713 21.3551,4.6603232 20.817408,4.2100886 19.851414,3.8858672 18.457225,3.6874718 17.855801,3.6019904 17.182888,4.0088138 16.422151,3.9702389 Z m -0.851791,0.271151 c -1.168309,2.279334 -1.58324,3.2763165 -1.409813,4.2649152 0.173388,0.9884518 0.499467,2.2780419 0.97805,3.8686639 L 12.33418,11.972267 C 12.32099,11.672241 12.118383,11.408185 12.119163,11.128604 12.123463,9.5272137 12.357487,8.2584882 12.820756,7.3228397 13.365136,6.223819 14.22655,5.621094 15.57036,4.2413899 Z"
            fill="#ff8b74"
            id="path44"
            style="stroke-width:0.0607496" />
    <path
            d="M 20.35045,9.8282186 C 22.400001,8.9313202 24.116253,7.164489 23.853275,6.1091048 23.590631,5.0537881 21.496803,3.2806308 17.108123,4.402747 c -4.388386,1.1220385 -4.776327,5.1706007 -4.359875,6.724625 0.416823,1.55424 5.552505,-0.402216 7.602202,-1.2991534 z m -4.187883,2.4507554 c -0.937397,0.239585 -1.730938,0.360553 -2.372477,0.33701 -0.961063,-0.03564 -1.694798,-0.407782 -1.921322,-1.25276 -0.30587,-1.140947 -0.184974,-2.7441872 0.424429,-4.1269601 0.795842,-1.8061435 2.329287,-3.1372284 4.58959,-3.7150887 2.172912,-0.5557122 4.029707,-0.4989552 5.47897,0.071321 1.25189,0.4927925 2.145131,1.3720024 2.375426,2.2966883 0.402913,1.6201525 -1.579277,3.7042863 -4.021607,4.7729615 -1.445368,0.632229 -3.143007,1.256484 -4.553009,1.616828 z"
            fill="#524f75"
            id="path46"
            style="stroke-width:0.0607496" />
    <path
            d="M 17.116925,3.5476676 A 0.92350432,0.926495 77.227228 1 0 15.327023,4.02703 0.92350432,0.926495 77.227228 1 0 17.116925,3.5476676 Z"
            fill="#ffd04f"
            id="path48"
            style="stroke-width:0.0607496" />
    <path
            d="M 16.539813,4.9723589 C 15.883809,5.1480469 15.209631,4.7601198 15.03413,4.105471 c -0.1755,-0.6546494 0.21444,-1.3275629 0.870298,-1.5032113 0.655857,-0.1756485 1.330182,0.2122392 1.505682,0.8668885 0.175648,0.65461 -0.21444,1.3275629 -0.870297,1.5032107 z M 16.382841,4.3862418 a 0.6216267,0.62131465 0 0 0 0.441043,-0.7600936 0.6216267,0.62131465 0 0 0 -0.762192,-0.4378497 0.6216267,0.62131465 0 0 0 -0.44115,0.7602795 0.6216267,0.62131465 0 0 0 0.762299,0.4376638 z"
            fill="#524f75"
            id="path50"
            style="stroke-width:0.0607496" />
    <path
            d="M 14.730339,23.985918 C 10.008951,23.596383 8.3618527,22.656523 8.0455757,21.388714 7.7292993,20.120904 10.201236,18.743576 14.720323,17.422675"
            fill="#3d96c8"
            id="path52"
            style="stroke-width:0.0607496" />
    <path
            d="M 14.8044,23.482011 C 10.610393,23.209275 8.7899799,22.473891 8.4855405,21.337746 8.2585011,20.491175 10.453924,19.156774 14.785733,17.807963 a 0.455293,0.45506442 0 1 0 -0.270748,-0.868869 c -4.8872659,1.521887 -7.343268,3.014498 -6.9090704,4.634376 0.4440623,1.656435 2.5825734,2.52045 7.1392974,2.816393 a 0.45511798,0.45488949 0 1 0 0.05919,-0.907852 z"
            fill="#524f75"
            id="path54"
            style="stroke-width:0.0607496" />
    <path
            d="m 16.28471,24.067223 m -0.607058,0 a 0.60705764,0.60675287 0 1 0 1.214115,0 0.60705764,0.60675287 0 1 0 -1.214115,0 z"
            fill="#524f75"
            id="path56"
            style="stroke-width:0.0607496" />
</svg>
